<svg width="1440" height="135" viewBox="0 0 1440 135" fill="none" xmlns="http://www.w3.org/2000/svg">
<path d="M0 128L34.3 106.7C68.6 85 137 43 206 42.7C274.3 43 343 85 411 106.7C480 128 549 128 617 106.7C685.7 85 754 43 823 37.3C891.4 32 960 64 1029 85.3C1097.1 107 1166 117 1234 101.3C1302.9 85 1371 43 1406 21.3L1440 0V134.5L1393 134C1358.7 134 1303 134 1234 134C1165.7 134 1097 134 1029 134C960 134 891 134.5 823 134.5C754.3 134.5 691.5 134.5 622.5 134.5C554.1 134.5 476.5 134.5 407.5 134.5C339.4 134.5 267.5 134.5 199.5 134.5C130.6 134.5 69.3 134.5 34.3 134.5H0V128Z" fill="#FFD700"/>
</svg>
